<svg xmlns="http://www.w3.org/2000/svg" viewBox="0 0 15.9 16"><defs><style>.cls-1{fill:#008c31;}.cls-2{fill:#ff0;}.cls-3{fill:#ffa727;}</style></defs><g id="レイヤー_2" data-name="レイヤー 2"><g id="レイヤー_5" data-name="レイヤー 5"><ellipse class="cls-1" cx="7.95" cy="8" rx="7.95" ry="8"/><ellipse class="cls-2" cx="7.95" cy="8" rx="6.19" ry="6.22"/><path d="M11.71,14H10.45A3.19,3.19,0,0,1,10,14l-.17,0H9.66a1.43,1.43,0,0,1-1.1-.44A1.71,1.71,0,0,1,7.43,14a4.08,4.08,0,0,1-.73-.08,3.25,3.25,0,0,0-.49-.06H6.14l-.23,0-.54,0a7.93,7.93,0,0,1-1,.08,3.41,3.41,0,0,1-1.24-.18l-.29-.09a2,2,0,0,1-1-.88l-.13-.15a3,3,0,0,1-.67-1.65l0-.29a3.41,3.41,0,0,1,.74-2.25l0,0,0,0a2.31,2.31,0,0,1,.24-.2,2.71,2.71,0,0,1,.8-.39l.22-.11.26-.11.18-.08a3,3,0,0,0,.86-1.3l.26-.56,0,0,0,0,.16-.2A1.89,1.89,0,0,1,5,5.25l.12-.17,0-.1a.78.78,0,0,0,0-.14V4.78l0-.09a1.67,1.67,0,0,1-.75-.49l0,0,0,0a1.46,1.46,0,0,1-.16-.36,1.5,1.5,0,0,1,0-.37V3.31l0-.1A3.63,3.63,0,0,1,5,1.87a1.71,1.71,0,0,1,.18-.2,1.07,1.07,0,0,1,.18-.19h0l.21-.17.2-.15h0l0,0,.11-.06L6.12.93,6.43.79A2.75,2.75,0,0,1,7.7.47h.06l.4,0a3.76,3.76,0,0,1,3.25,1.7c.08.11.16.21.24.33a1.37,1.37,0,0,1,.13.2,5.19,5.19,0,0,1,.64,2c0,.08,0,.16,0,.24s0,.17,0,.25c0,.26-.08.5.14.73a2,2,0,0,1,0,.24l0,.23.06.25a5.41,5.41,0,0,0,.19.69l.09.22c0,.08.09.16.14.23l.15.22a6.52,6.52,0,0,1,1,1.79l0,.15a1.07,1.07,0,0,1,.07.19v.07a2.74,2.74,0,0,1,0,.28c0,.24.07.5.1.82h0c0,.11,0,.2,0,.28a2,2,0,0,1-.84,1.67,1.62,1.62,0,0,1-.2.18,2.78,2.78,0,0,1-1.87.6M8.25,10.86a.47.47,0,0,0,.06.15.61.61,0,0,1,0-.12v0h-.1m-.39-3.2.16,0,.09,0,.1,0,.17,0,.14,0c-.14-.19-.27-.38-.38-.56L8,6.73a.37.37,0,0,1,0,.11v0l0,.4q0,.15,0,.27s0,.13,0,.13"/><path class="cls-3" d="M8.12,13.38c-.66.58-1.38.11-2.07.16H5.8a5.88,5.88,0,0,1-2.54,0L3,13.45a1.38,1.38,0,0,1-.75-.68,1.29,1.29,0,0,1-.16-.17,2.48,2.48,0,0,1-.54-1.33,2.29,2.29,0,0,1,0-.25,2.76,2.76,0,0,1,.6-1.85L2.34,9A2.31,2.31,0,0,1,3,8.7l.25-.12.24-.11.24-.09A4.87,4.87,0,0,0,5.11,6.26a1.25,1.25,0,0,1,.15-.19c0-.07.09-.14.14-.2l.14-.19a1.39,1.39,0,0,0,.11-.21,1.55,1.55,0,0,0,.07-.23l.1-.2a5.93,5.93,0,0,1,.29-.56c0-.12-.13-.36-.36-.12a.64.64,0,0,1,.41-.15l.15,0a1.59,1.59,0,0,1-.27.1c-.29.32-.89.09-1.14-.21a.72.72,0,0,1-.09-.2.76.76,0,0,1,0-.21,3,3,0,0,1,.57-1.15,2.09,2.09,0,0,1,.14-.17l.16-.16L5.83,2,6,1.9l.1-.06.2-.1.3-.14a2.29,2.29,0,0,1,1.07-.27l.35,0a3.24,3.24,0,0,1,2.81,1.44l.24.33a1.74,1.74,0,0,1,.11.18c.65,1.08.55,2.28.86,3.46,0,.08,0,.17,0,.26A3.51,3.51,0,0,0,13,8.87L13.2,9a3.59,3.59,0,0,1,.37.73,1.07,1.07,0,0,1,.07.19,3.82,3.82,0,0,1,.08.39l.09.23c0,.08,0,.17,0,.25,0,.26.07.52.1.78,0,.08,0,.16,0,.23A1.39,1.39,0,0,1,13.32,13l-.19.19c-.71.61-1.68.42-2.5.45h-.24l-.47,0-.22,0a.86.86,0,0,1-.93-.47,2.12,2.12,0,0,1,0-1.45c0-.09,0-.17.07-.26l.1-.24a1,1,0,0,0,0-.24c0-.08,0-.16,0-.23s0-.15,0-.22H8.59a1.45,1.45,0,0,1-.35,0H8a.39.39,0,0,0-.35.13.53.53,0,0,0-.08.17A2,2,0,0,0,8,12c0,.08.07.15.1.23.1.37.34.73.11,1l-.05.09m-.76-4.8a5,5,0,0,0,.72-.1l.12,0,.14,0a.61.61,0,0,0,.77-.47.51.51,0,0,0,0-.13,1.08,1.08,0,0,0-.08-.19l-.11-.15A7.07,7.07,0,0,0,7.81,6a.48.48,0,0,0-.19.09c-.25.19-.19.57-.35.81,0,0,0,.09,0,.13,0,.26,0,.52-.06.74v.11a1.46,1.46,0,0,0,.1.65.11.11,0,0,0,.08,0h0"/></g></g></svg>