<svg xmlns="http://www.w3.org/2000/svg" viewBox="0 0 377 377"><defs><style>.cls-1{fill:#008c31;}.cls-2{fill:#ff0;}.cls-3{fill:#ffa727;}.cls-4{fill:#fff;}</style></defs><g id="レイヤー_2" data-name="レイヤー 2"><g id="レイヤー_5" data-name="レイヤー 5"><circle class="cls-1" cx="188.5" cy="188.5" r="188.45"/><circle class="cls-2" cx="188.5" cy="188.5" r="146.67"/><path d="M215.29,173c1.74.26,3.45.44,5.11.63,1.5.16,3,.32,4.43.53l.95.15,1.59.25,1.18.15a35.78,35.78,0,0,0,4.87.29c.61.18,1.17.33,1.73.46s1.2.25,1.8.34a15.31,15.31,0,0,0,12.18-3.17,18.31,18.31,0,0,0,11.41,6,40.28,40.28,0,0,0,7.78.17,30.1,30.1,0,0,1,5.33,0l.47.08.24,0c.79.12,1.59.28,2.38.44,1.85.39,3.7.84,5.66,1.33,3.32.82,6.75,1.66,10.29,2.18a36.86,36.86,0,0,0,13.37-.25,27,27,0,0,0,3.15-.61,21.35,21.35,0,0,0,11.92-7.85c.58-.48,1.09-.93,1.57-1.38A32.31,32.31,0,0,0,332,156.43c.27-1,.49-2,.67-3.06a35.44,35.44,0,0,0-4.74-24.62l-.26-.41-.31-.37a27,27,0,0,0-2.28-2.39,30.17,30.17,0,0,0-7.94-5.21c-.72-.48-1.45-1-2.18-1.4s-1.74-1.07-2.59-1.57l-1.84-1c-3.91-3.69-5.5-8.88-7.33-14.86-.61-2-1.25-4.1-2-6.19l-.17-.48-.25-.44a27.06,27.06,0,0,0-1.44-2.34c-.42-.87-.84-1.63-1.17-2.22l-1.11-1.91a9.89,9.89,0,0,1-.39-1.16,8.57,8.57,0,0,1-.28-1.48l-.07-.69s-.28-.85-.3-.94a18.12,18.12,0,0,0,8.64-4.21l.31-.29.28-.32a13.64,13.64,0,0,0,2.18-3.63,15.76,15.76,0,0,0,1-3.76l.15-1-.18-1c-.77-4.29-1.64-9.14-5.3-15.05-.5-.79-1-1.58-1.58-2.35s-1.09-1.48-1.66-2.18l-.11-.13-.11-.12c-.66-.73-1.31-1.41-2-2.07s-1.31-1.27-2-1.86l-.19-.18-.22-.17-1.08-.81c-.73-.53-1.47-1-2.21-1.54-1-.67-2.05-1.33-3.11-2a30.59,30.59,0,0,0-13-5.1c-.22,0-.44-.06-.66-.09-1.5-.19-2.94-.26-4.18-.31-16.46-1.11-28.83,3.42-36.75,13.46-1,1-2,2.07-3,3.15-.56.63-1.11,1.27-1.64,1.93-6.21,7.88-8.55,16.45-10.82,24.74a107,107,0,0,1-3.82,12.06L215,91l-.06.17c-.3.87-.6,1.72-.9,2.56-2.27,6.33-5.22,12.67-11.44,16.37l-1,.59-.72.88c-.59.72-1.16,1.45-1.71,2.18a39.33,39.33,0,0,0-6.62,12.49c-.33.62-.64,1.24-1,1.87l-.19.38-.14.39c-.32.95-.62,1.9-.91,2.85-.73,2.45-1.42,5.16-2.18,8.52l0,.12c-.23,1.11-.39,2-.5,2.93a21.13,21.13,0,0,0,6.7,18.62c.62.83,1.22,1.56,1.82,2.23,5.59,6.2,13.12,8,19,8.84m40.86-28.58a15.17,15.17,0,0,1-.87,1.51c-.1-.45-.21-.91-.32-1.36l0-.12,1.12,0h0m8.44-33c-.56-.16-1.1-.33-1.65-.53-.31-.12-.63-.24-.95-.38l-1.05-.46-1.75-.79-1.48.14c1.78-1.78,3.32-3.61,4.81-5.38.76-.9,1.49-1.77,2.21-2.57.09.41.21.84.35,1.27v.12c0,1.42-.08,2.89-.15,4.31-.06,1-.11,2-.13,2.9-.05.28-.21,1.35-.21,1.37"/><path class="cls-3" d="M254.64,166.35c6.16,7,14.46,3.06,21.64,4.5.89.14,1.78.31,2.67.5,8.9,1.85,17.9,5.28,26.89,3.22a22.91,22.91,0,0,0,2.67-.51,15,15,0,0,0,8.85-6.1c.68-.55,1.31-1.08,1.91-1.63A26,26,0,0,0,326.73,153c.23-.86.42-1.72.57-2.59a29.19,29.19,0,0,0-3.89-20.2,20,20,0,0,0-1.75-1.82,24,24,0,0,0-6.69-4.29c-.83-.55-1.65-1.09-2.47-1.6s-1.64-1-2.44-1.46-1.58-.92-2.34-1.33c-7.29-6.35-8.53-15.55-11.61-24.12a22.19,22.19,0,0,0-1.37-2.18c-.39-.83-.81-1.59-1.22-2.33s-.84-1.46-1.27-2.18a18,18,0,0,1-.82-2.34,15.81,15.81,0,0,1-.47-2.52l-.73-2.2c-.74-2.16-1.47-4.32-2.33-6.38.18-1.26,1.81-3.6,4-.71-1.08-1.44-2.34-1.63-4.13-2.14a8.62,8.62,0,0,0-1.54-.49,17.43,17.43,0,0,0,2.68,1.35c2.62,3.81,9.3,2.2,12.4-.62a7.43,7.43,0,0,0,1.17-2,9.47,9.47,0,0,0,.61-2.25c-.71-4-1.42-7.94-4.44-12.82-.43-.68-.87-1.34-1.34-2s-.94-1.27-1.43-1.88-1.15-1.22-1.74-1.8-1.17-1.13-1.77-1.67l-1-.73c-.66-.48-1.32-.95-2-1.39-1-.67-2-1.3-3-1.89a24.08,24.08,0,0,0-11-4.24c-1.23-.15-2.47-.22-3.75-.27-12-.82-23.88,1.32-31.59,11.29-1,1.07-2.05,2.12-3,3.22-.49.54-1,1.11-1.44,1.68-8.26,10.5-8.83,23.31-13.69,35.2-.31.9-.62,1.79-.94,2.67-2.82,7.87-6.52,15.11-14.16,19.67-.54.66-1.07,1.33-1.58,2a32.75,32.75,0,0,0-5.77,11.06c-.41.76-.8,1.52-1.18,2.29s-.57,1.74-.84,2.62c-.79,2.65-1.45,5.34-2.07,8.09-.16.83-.31,1.63-.41,2.43a14.84,14.84,0,0,0,5.14,13.57,25.58,25.58,0,0,0,1.78,2.23c6.6,7.32,17.18,6.7,25.85,8.13.84.14,1.67.27,2.5.37a29.77,29.77,0,0,0,5,.21c.76.25,1.52.48,2.27.65,3.76.87,7.37.43,10.54-3.62,2-4.86,4-9.73,2.45-15.24-.11-.93-.26-1.86-.45-2.77s-.42-1.83-.69-2.72a15.73,15.73,0,0,1,.52-2.51c.2-.8.38-1.58.53-2.35s.3-1.53.41-2.28c.63,0,1.58.16,2.7.24a23.61,23.61,0,0,0,3.77,0c.84.12,1.7.24,2.56.39a4.18,4.18,0,0,1,3.54,1.84,4.89,4.89,0,0,1,.65,1.86c.14,4.57-3.23,8.29-5.81,12.08-.52.75-1,1.51-1.43,2.28-1.53,3.78-4.6,7.2-2.57,10.77.25.61.44,1,.44,1m14.51-49.42a60.54,60.54,0,0,1-7.51-2c-.41-.15-.82-.31-1.25-.5l-1.36-.6c-3.84.38-7.33-2.07-7.59-6a7.06,7.06,0,0,1,0-1.37,7.85,7.85,0,0,1,1.09-1.86,12.58,12.58,0,0,1,1.36-1.45c4.88-4.83,8.32-10.78,13.93-13.82a5.65,5.65,0,0,1,1.9,1.21c2.39,2.36,1.23,6.2,2.57,9,0,.47,0,.93,0,1.39,0,2.77-.25,5.5-.29,7.81-.07.4-.13.79-.19,1.18-.35,2.35-.62,4.62-1.92,6.74a8.37,8.37,0,0,1-.89.21l.09,0"/><path d="M241.23,134.59c-.59-.59-1.15-1.2-1.69-1.84-3.75-4.48-6.24-10.26-9.08-16.85a138,138,0,0,0-6.5-13.67c-.3-.7-.58-1.4-.84-2.11-4.32-11.37-3.62-21.68,2-30.65,2.66-3.6,2.47-7.34-.58-11.17l-1.76-1.92c-2.45-1.44-4.85-4.68-6.78-6.1-.46-.33-.93-.65-1.42-1-10.92-7-26.63-6.55-37.36-3C166,50,158.72,59.81,156.63,73.5c-10.31-10-24.82-13.88-37.24-9.8A32.7,32.7,0,0,0,116,65c-1,.34-1.93.72-2.85,1.12C100.38,71.8,95.3,83.39,92.6,91.61l-.08.24a27,27,0,0,0-.65,2.91c-.16,1-.29,2-.37,3,0,.6-.07,1.21-.09,1.81s0,1.21,0,1.82c-1.51,9.84,6.94,15.11,10.06,23.58.46.67.92,1.33,1.39,2,1.42,2,2.9,4,4.44,5.93a27.29,27.29,0,0,0,1.94,2.15,23.12,23.12,0,0,0,1.1,2.32c.41.78.86,1.56,1.29,2.45a17.63,17.63,0,0,0,.5,2.63c.23.88.52,1.76.83,2.63a15.8,15.8,0,0,1,1,2.43,11.07,11.07,0,0,1,.49,2.38c-1,8.62-4.2,15.06-7.36,22.2-.19.57-.37,1.17-.53,1.79a24.14,24.14,0,0,0-.32,11l.07.35.11.35a29.77,29.77,0,0,0,1.42,3.65A23.19,23.19,0,0,0,126.5,203a26.47,26.47,0,0,0,3,.2c1,.07,2,.12,2.92.13.8,0,1.61,0,2.41,0,2.06.28,3.92.46,5.67.56.76,0,1.52.06,2.33.05.61,0,1.21,0,1.82-.07s1.21-.09,1.81-.15c4,.59,8-1.07,11.88-2.91l2.3-1.11c6.34-1,10-6.25,15.64-8.8q.93-.53,1.86-1.14a19.68,19.68,0,0,0,5.14-4.89l.1-.14.1-.16a21.15,21.15,0,0,0,1.79-3.47,18.93,18.93,0,0,0,.82-2.48c.34.3.68.58,1,.85a25.37,25.37,0,0,0,10.14,4.87c.88.19,1.8.34,2.73.45l.41,0h.42a41.26,41.26,0,0,0,6.86-.76l1.62-.33a24.15,24.15,0,0,0,4-.6c1.42-.31,2.91-.72,4.38-1.17.74-.22,1.48-.46,2.22-.7l2.2-.72,1.68-.37c1.54-.55,3-1.14,4.39-1.76a24,24,0,0,1,4.51-2.72,26.31,26.31,0,0,1,4.93-2c6.08-2.94,13.33-1.3,18.08-7.87l.44-1.1a25.21,25.21,0,0,0,1.07-3.31,34.59,34.59,0,0,0,1-6.36l0-.58-.07-.58c-.06-.53-.15-1-.25-1.58s-.24-1.05-.4-1.57C255.51,141.38,245.83,140.53,241.23,134.59Zm-61.15,20.2-3.89-1.39,5.58-3.35Z"/><path class="cls-3" d="M150.33,200.67c9.82-3.22,20.32-8,27.21-15.65-11.33,10.44-25.89,19.25-42.41,15.15-.84.05-1.71.06-2.6.05s-1.81-.06-2.76-.14a20.22,20.22,0,0,1-2.47-.15A16.64,16.64,0,0,1,114.84,192a20.15,20.15,0,0,1-1.19-2.21c-2.65-3-2.24-5.85-1.82-8.67,3.27-10.47,12.18-20.11,8.32-32.64-.31-.83-.65-1.66-1-2.48-1.07-2.47-2.28-4.87-3.29-7.16l-1.26-2.68c-.47-.88-.94-1.74-1.39-2.59s-.9-1.67-1.35-2.48c-3.83-6.44-8.64-12.91-12.63-20.25-.31-.46-.61-.92-.9-1.39-.12-.64-.22-1.28-.3-1.93a29.8,29.8,0,0,1-.14-6c.06-.83.16-1.66.3-2.5a17.58,17.58,0,0,1,.49-2.19c3.17-9.64,7.87-17.55,17.12-21.64q1.26-.56,2.64-1c12-5.65,25.72-1.11,34.38,7.75.67.68,1.3,1.38,1.91,2.11s1.17,1.48,1.7,2.26,1,1.56,1.5,2.37a26.9,26.9,0,0,1,3.43,10.39c2.16-1.6,1.63-4.11,1.27-6.31a6.64,6.64,0,0,1-.06-2.93C161.46,74.87,166,60,179.29,55.59c9.41-3.09,23.13-3.29,31.94,2.34a21.14,21.14,0,0,1,2.09,1.53c1.83,3.13,9.48,6,6.64,9.61-7.7,12-7.23,24.82-2.78,36.55.34.91.7,1.8,1.09,2.69,8,14.14,10.5,29.94,23.74,38.2.88.55,1.81,1.07,2.76,1.56,1.87,2.16,4.69,2.57,5.67,5.3a12.3,12.3,0,0,1,.9,2.19,13.1,13.1,0,0,1,.51,2.35,29.12,29.12,0,0,1-.8,5.19,20,20,0,0,1-.8,2.48,24,24,0,0,1-1.95,1.83,13.85,13.85,0,0,1-2.48,1.64,19.8,19.8,0,0,0-8.38,1.52,23.36,23.36,0,0,0-2.41,1.18c-.37.11-.72.23-1.07.35l-1,.41a13.58,13.58,0,0,1-1.87.33l-.94.1a87.15,87.15,0,0,0-9,3.69,9.49,9.49,0,0,1-1.12.42,4.38,4.38,0,0,1-1.12.19l-.67.53a6.29,6.29,0,0,1-2,1.09l-1.41.29c-4.71,1-9.25,2.43-14.2,2.54a20.37,20.37,0,0,1-2.05-.34,18.87,18.87,0,0,1-7.56-3.64A21.17,21.17,0,0,1,189.2,176c-3.32-2.88-4.58-6.25-2.94-9.9.1-.24.23-.49.36-.73l-.24-.46c.47-1.63.91-2.85,1.26-3.9l.26-.69c.1-.5.23-1,.37-1.51s.3-1,.45-1.51c.21-.9.43-1.8.64-2.69.11-.45.22-.89.32-1.34s0-1,.1-1.45c.16-.94.34-1.86.53-2.77s.38-1.81.61-2.7c2.52-2.83,1.32-6.46,1.56-10.18a9.78,9.78,0,0,0-.24-1.9c0-.43,0-.87,0-1.31s0-.88-.1-1.34-.12-.83-.21-1.25-.2-.84-.32-1.27c0-.26-.08-.53-.13-.8s-.11-.54-.18-.82a3.27,3.27,0,0,0-.28-.92,3,3,0,0,0-.53-.82c-.1-.18-.2-.36-.31-.54-.3-.53-.62-1.06-.88-1.61a4.65,4.65,0,0,0-.34-.52,3.24,3.24,0,0,0-2.65-1.35A6.15,6.15,0,0,0,184,122a2.61,2.61,0,0,0-1.29.88,9.82,9.82,0,0,0-.62,1.53c-.07.25-.14.5-.19.75a5.54,5.54,0,0,0-.11.56c-.08.23-.16.47-.22.69a9.49,9.49,0,0,0-.36,3.16c0,.34.06.69.11,1s.16.66.23,1,.15.61.23.9a3.68,3.68,0,0,1,.71,1.09,3.4,3.4,0,0,1,.22,1.06,5.67,5.67,0,0,0-.5,3.42c0,.26.08.53.13.8a1.83,1.83,0,0,0,0,1,5.64,5.64,0,0,0,.44,1.12c.33.59.77,1.21,1.1,1.86a3.26,3.26,0,0,1,.4,2,3.78,3.78,0,0,1-1.66,2.23c-.18.26-.37.54-.57.81a7.46,7.46,0,0,1-.81.78,8.28,8.28,0,0,1-3,1.67,9.06,9.06,0,0,1-1.22.28,11.28,11.28,0,0,1-1.33.14,9.25,9.25,0,0,1-1.08-.06,5.19,5.19,0,0,1-.69-.52,23.29,23.29,0,0,0-1.49-2c-.27-.33-.54-.65-.82-1a8.08,8.08,0,0,1-3.88-3.52c-.12-.19-.24-.39-.35-.6-2.55-.82-1.32-5.26-3.56-5.4-.18-.19-.37-.36-.57-.54l-.6-.66a6.32,6.32,0,0,0-.6-.56,11,11,0,0,0-.74-1,14.74,14.74,0,0,0-3-2.78,10.4,10.4,0,0,0-.76-.72,3.28,3.28,0,0,0-1.13-.34,4.45,4.45,0,0,0-3.3,1.23,8.85,8.85,0,0,0-.75.67q0,.66.15,1.29a12.75,12.75,0,0,0,.24,1.26,6.41,6.41,0,0,0,.3,1.24,66.63,66.63,0,0,1,3.63,9.29l.36.65c.12.21.24.42.37.62l.3.35.29.33c1.15,1.53,1.55,2.74,3.34,3.48.21.14.42.26.64.39,1.07.6,2.15,1.12,2.31,2.13a6.28,6.28,0,0,0,.47.62c1.91,2.24,5.05,2.49,6.31,4.17a2.67,2.67,0,0,0,.62.21,2,2,0,0,0,.69,0,2.8,2.8,0,0,1,.4.54,77.15,77.15,0,0,1,6,10.65,23,23,0,0,1,.83,2.32c4.79,17-16.2,22.56-27.33,27.66-1.26.36-1.93.53-1.93.53"/><path d="M148.37,209.1c-1.4,1.05-2.82,2-4.18,3s-2.47,1.72-3.63,2.59l-.76.58c-.44.35-.86.67-1.29,1s-.63.47-.95.7a36.21,36.21,0,0,1-4.13,2.58c-.45.46-.88.86-1.3,1.24s-.94.8-1.42,1.16A15.34,15.34,0,0,1,118.5,225a18.31,18.31,0,0,1-7.12,10.75,40.36,40.36,0,0,1-6.74,3.89,30.36,30.36,0,0,0-4.65,2.6l-.38.3-.19.15c-.63.49-1.26,1-1.87,1.54-1.44,1.22-2.84,2.51-4.33,3.87-2.52,2.31-5.12,4.7-8,6.85a36.9,36.9,0,0,1-11.85,6.2,26.25,26.25,0,0,1-3.06,1A21.22,21.22,0,0,1,56.11,261c-.74-.14-1.41-.29-2-.45a32.35,32.35,0,0,1-16-9.93c-.72-.76-1.41-1.55-2.05-2.36a35.48,35.48,0,0,1-7.66-23.88l0-.48.09-.47a26,26,0,0,1,.87-3.19,29.53,29.53,0,0,1,4.46-8.38c.4-.77.82-1.53,1.23-2.28s1-1.77,1.53-2.62l1.11-1.8c1.66-5.11.56-10.43-.7-16.55-.43-2.06-.87-4.2-1.21-6.39l-.08-.5v-.51a27.31,27.31,0,0,1,.14-2.74c0-1,0-1.84,0-2.51s0-1.49,0-2.22a10.51,10.51,0,0,0-.21-1.19,8,8,0,0,0-.47-1.43l-.27-.65-.18-1a18.16,18.16,0,0,1-9.6.46l-.42-.1-.39-.16a13.67,13.67,0,0,1-3.66-2.13,16,16,0,0,1-2.71-2.81l-.62-.83-.33-1c-1.38-4.12-3-8.8-2.57-15.74.05-.93.14-1.88.26-2.82s.25-1.82.41-2.71l0-.16,0-.17c.23-.95.48-1.86.75-2.77s.55-1.74.84-2.58l.09-.25.11-.25c.18-.41.37-.82.56-1.23.39-.82.79-1.62,1.2-2.41.56-1.07,1.16-2.15,1.79-3.21a30.67,30.67,0,0,1,8.92-10.7l.53-.39c1.23-.89,2.46-1.64,3.53-2.28,13.91-8.87,26.92-10.83,38.7-5.82,1.38.42,2.74.85,4.11,1.34.8.28,1.58.58,2.37.9,7.38,3.15,12.81,7.87,17.74,12.8.61.61,1.22,1.23,1.82,1.85s1.29,1.28,1.94,1.9c1.9,2,2.41,4.78,5.76,5.37.61.59,1.22,1.18,1.81,1.77s1.16,1.19,1.71,1.8,1.35,1.23,2,1.82a55.21,55.21,0,0,0,6,4.7c.7.47,1.42.91,2.17,1.33s1.79.77,2.67,1.08,1.75.61,2.63.92c6.52,1,13.15,5.58,19.79,9.07.42.37.82.74,1.21,1.13.58.38,1.15.77,1.73,1.17l.34.25.31.28c.74.67,1.46,1.36,2.17,2.07,1.82,1.79,3.72,3.83,6,6.42l.08.09c.73.87,1.31,1.61,1.84,2.34a21.13,21.13,0,0,1,3.06,19.55c-.15,1-.32,1.95-.53,2.82-1.93,8.13-7.68,13.3-12.47,16.91M98.8,203.62a16.74,16.74,0,0,0,1.49.92q-.2-.67-.36-1.35l-.09-.09-1,.5,0,0M75.55,178.68c.41-.4.8-.81,1.19-1.25.22-.25.43-.51.65-.79l.7-.91,1.15-1.53,1.38-.58c-2.42-.71-4.65-1.58-6.81-2.41-1.1-.43-2.15-.84-3.17-1.2a11.45,11.45,0,0,1,.3,1.28l.06.11c.68,1.24,1.46,2.49,2.2,3.7.53.86,1,1.69,1.51,2.49l.84,1.09"/><path class="cls-3" d="M113.39,226c-2,9.1-11.22,9.63-16.83,14.33-.71.55-1.41,1.13-2.1,1.72-6.92,5.9-13.17,13.23-22,15.73a19.81,19.81,0,0,1-2.58.83,15.05,15.05,0,0,1-10.7-1.1c-.85-.15-1.66-.32-2.45-.52A25.79,25.79,0,0,1,43.76,249c-.62-.65-1.2-1.31-1.75-2a29.17,29.17,0,0,1-6.28-19.59,20.79,20.79,0,0,1,.66-2.43,23.52,23.52,0,0,1,3.82-7c.45-.88.92-1.75,1.39-2.59s1-1.66,1.44-2.45,1-1.56,1.42-2.29c3.34-9.07,0-17.73-1.39-26.74a21.85,21.85,0,0,1,.15-2.56c0-.92,0-1.79,0-2.64s0-1.68.06-2.51a15.84,15.84,0,0,0-.4-2.45,14.19,14.19,0,0,0-.8-2.44c-.14-.78-.27-1.53-.41-2.28-.39-2.25-.78-4.49-1-6.71-.76-1-3.31-2.29-3.82,1.28.25-1.79,1.27-2.55,2.6-3.86a9.08,9.08,0,0,1,1.11-1.18A17.35,17.35,0,0,1,38.8,161c-.48,4.6-7.11,6.39-11.18,5.4a7.31,7.31,0,0,1-2-1.15A9.58,9.58,0,0,1,24,163.58c-1.28-3.82-2.56-7.64-2.25-13.37.05-.8.12-1.6.22-2.39s.21-1.57.35-2.34.42-1.62.66-2.41.49-1.56.76-2.32c.16-.37.33-.74.5-1.11.35-.74.71-1.46,1.08-2.17.56-1.07,1.14-2.11,1.73-3.1a24.1,24.1,0,0,1,7.59-9c1-.73,2.06-1.38,3.16-2C48,116.88,59.42,113,71,118.1c1.42.44,2.82.87,4.21,1.36.69.25,1.38.51,2.06.79,12.29,5.25,18.94,16.21,28.91,24.31.7.64,1.4,1.28,2.1,1.89,5.63,5,11.64,9.21,19.26,10.24.85.11,1.72.19,2.62.24a37.52,37.52,0,0,1,7.82,3.93c.57.38,1.14.77,1.7,1.19a26.79,26.79,0,0,1,3.18,2.8c.72.47,1.43,1,2.14,1.44s1.34,1.26,2,1.9c2,1.94,3.83,4,5.69,6.1.55.65,1.06,1.28,1.53,1.94a14.82,14.82,0,0,1,2,14.36,26,26,0,0,1-.5,2.82c-2.28,9.59-11.85,14.12-18.77,19.54-.68.52-1.34,1-2,1.52a29.12,29.12,0,0,1-4.28,2.58c-.55.59-1.1,1.15-1.68,1.66-2.88,2.57-6.26,3.91-11,1.88-4.08-3.31-8.17-6.62-9.47-12.19-.35-.87-.66-1.76-.93-2.65s-.51-1.81-.7-2.72a15,15,0,0,0-1.66-1.95c-.56-.61-1.09-1.21-1.6-1.81s-1-1.2-1.45-1.8c-.54.32-1.3.89-2.25,1.51a23.5,23.5,0,0,1-3.3,1.81c-.68.51-1.38,1-2.06,1.57a4.22,4.22,0,0,0-2.23,3.32,4.87,4.87,0,0,0,.33,1.94c2.07,4.08,6.81,5.73,10.89,7.81.82.42,1.61.85,2.35,1.32,3.15,2.58,7.49,4.1,7.42,8.21.08.65.09,1.07.09,1.07m-36.45-36.4a57.54,57.54,0,0,0,5.65-5.32c.29-.32.58-.67.86-1l.91-1.18c3.55-1.52,5.44-5.34,3.77-8.93a7.62,7.62,0,0,0-.7-1.18,7.63,7.63,0,0,0-1.85-1.11,11.59,11.59,0,0,0-1.89-.62c-6.6-1.9-12.47-5.46-18.85-5.44a5.66,5.66,0,0,0-1.09,2c-1,3.22,1.9,6,2.07,9.13.21.42.42.83.64,1.23,1.33,2.43,2.86,4.71,4,6.72.25.31.49.63.73.94,1.44,1.89,2.76,3.76,4.92,5a5.47,5.47,0,0,0,.88-.23l-.06.07"/><path d="M241.91,283.72c-2.52,0-6.12-.24-8.4-2.94a7.44,7.44,0,0,1-1.56-6q.11-1.38.24-2.76l.29-2.77L235,268c.37-.18.72-.37,1-.56,2.85-2.08,3.82-5.78,3.45-13.11-.05-1-.11-1.93-.18-2.9-.53-7.61-.37-15.24-.22-22.61.05-2.18.1-4.36.12-6.55,0-1,0-1.89,0-2.84v-.48l.09-.46c1.81-9.38,1.83-19.22.06-31.92-.13-.92-.26-1.83-.4-2.74l0-.27c-.14-1.34-.25-2.76-.36-4.23-.37-4.81-.79-10.26-2.33-14.76l-.69-3.93,2.21-2a19.56,19.56,0,0,1,9.82-2.51,51.45,51.45,0,0,1,6,.36,41.36,41.36,0,0,0,4.48.29,10.36,10.36,0,0,0,1.92-.18l.48-.1,27.8-.36.34,0a41,41,0,0,0,5.56.25c1.46,0,2.94-.08,4.43-.14s3.18-.13,4.76-.15,3.1,0,4.44.09c1.1.06,2.16.15,3.22.29l.78.09.71.34a155.24,155.24,0,0,1,20.83,11.69l2,1.34a23.39,23.39,0,0,1,7.07,6,22.42,22.42,0,0,1,1.66,2.45c5.79,9.29,4.12,20.21,3,27.44l-.07.4-.12.38a23.92,23.92,0,0,1-9.31,12.06,30.07,30.07,0,0,1,7.89,4.7,33.31,33.31,0,0,1,2.49,2.27l.37.37.28.44c4.72,7.25,14.48,22.27,5.52,35.43-.34.67-.71,1.34-1.1,2s-1,1.52-1.5,2.26c-.67.9-1.34,1.71-2,2.49-7.35,8.29-17.9,13.07-29.72,13.46-.88.08-1.78.14-2.69.19s-1.92.07-2.9.08l-57,.74-.54-.11a11,11,0,0,0-1.72-.19c-.42,0-.86,0-1.3,0l-1,0c-.87,0-1.75.1-2.63.18l-2.23.22-.57,0c-1.83.19-3.61.36-5.24.38m47.19-36.93c3.92-.38,5.55-1.26,6.13-1.69,1.08-.8,1.61-2.55,1.58-5.22-.06-4.61-1.45-7.57-7.9-7.88Zm-.58-44.73c3.24-.37,4.59-1.11,5.08-1.47,1.15-.86,1.37-3,1.35-4.71,0-2.39-.08-5.59-6.59-6Z"/><path class="cls-3" d="M240.32,163.07c6.68-3.88,14.38-.15,20.66-1.46l2.59,0,22.73-.3,1.63,0c6.19.78,13-.3,19.52.08,1,0,1.91.13,2.88.26a151.3,151.3,0,0,1,20.14,11.31c.71.47,1.41,1,2.11,1.43a18.41,18.41,0,0,1,5.74,4.82,18.07,18.07,0,0,1,1.31,2c4.67,7.42,3.51,16.36,2.33,24-2.45,7.68-11.31,12.9-18.94,14.27a13.7,13.7,0,0,0,4.06,2c.71.21,1.42.38,2.14.53a23.79,23.79,0,0,1,12.95,5.45,27.13,27.13,0,0,1,2.1,1.92c5.77,8.88,12.29,20.28,5.4,30-.33.66-.69,1.32-1.08,2s-.81,1.28-1.26,1.9-1.12,1.43-1.71,2.1c-6.51,7.34-15.78,11.44-26.21,11.75-.87.08-1.74.14-2.63.18s-1.79.07-2.71.08l-54.54.71-1.91,0a16.15,16.15,0,0,0-2.51-.29c-.88,0-1.81,0-2.75,0s-1.91.11-2.87.2l-2.85.28c-5.59.56-10.33.93-9.62-2.91.07-.95.15-1.9.25-2.84.53-.27,1-.54,1.52-.83,5.59-3.89,6.11-10.7,5.76-17.65-.05-1-.11-2-.19-3-.65-9.55-.2-19.12-.08-28.72,0-1,0-1.93,0-2.89,2.17-11.25,1.66-22.36.1-33.59-.13-.93-.27-1.87-.41-2.81-.59-5.93-.69-13.58-2.93-20.13l-.75.18m42.88,21.67.29,22.66,1.3,0q8.38-.1,11.86-2.71t3.4-8.85q-.15-11.3-13.73-11.11Zm.54,42.19.32,25.17,1.61,0q8.83-.12,12.59-2.87t3.65-9.4q-.17-13.11-14.58-12.93Z"/><path d="M194.71,311.41c1.67-.56,3.29-1.16,4.85-1.74s2.82-1.05,4.2-1.51l.91-.3c.53-.16,1-.32,1.54-.49l1.12-.39a36,36,0,0,0,4.47-1.93c.63-.11,1.21-.23,1.76-.37s1.19-.31,1.76-.5a15.31,15.31,0,0,0,9.46-8.31,18.35,18.35,0,0,0,12.9.26,40.87,40.87,0,0,0,7-3.35,30.68,30.68,0,0,1,4.79-2.34l.46-.14.23-.07c.77-.24,1.55-.47,2.33-.67,1.82-.49,3.68-.91,5.65-1.36,3.33-.76,6.78-1.54,10.17-2.67a37.16,37.16,0,0,0,11.84-6.23,25.72,25.72,0,0,0,2.53-2A21.24,21.24,0,0,0,289.82,265c.31-.69.56-1.32.79-2a32.28,32.28,0,0,0,.95-18.83c-.22-1-.48-2.05-.78-3a35.48,35.48,0,0,0-15.3-19.87l-.41-.25-.44-.19a25.47,25.47,0,0,0-3.11-1.1,29.66,29.66,0,0,0-9.43-1.09c-.87-.11-1.73-.2-2.58-.28-1-.09-2-.17-3-.23l-2.11-.11c-5.15-1.54-8.9-5.46-13.22-10-1.45-1.53-3-3.1-4.57-4.64l-.37-.34-.41-.29c-.77-.53-1.55-1-2.34-1.45s-1.49-1.07-2.05-1.44-1.24-.83-1.85-1.22a9.89,9.89,0,0,1-.86-.85,8.43,8.43,0,0,1-.91-1.2l-.38-.59-.7-.7a18.2,18.2,0,0,0,5.84-7.65l.15-.39.1-.42a13.76,13.76,0,0,0,.32-4.22,16.09,16.09,0,0,0-.77-3.82l-.33-1-.62-.83c-2.61-3.48-5.57-7.43-11.5-11.06-.79-.49-1.62-1-2.46-1.4s-1.64-.82-2.46-1.19l-.15-.07-.16-.06c-.92-.36-1.81-.67-2.7-1s-1.75-.54-2.61-.77l-.26-.08-.26-.05-1.34-.23c-.89-.15-1.77-.28-2.66-.39-1.19-.14-2.43-.26-3.66-.35a30.57,30.57,0,0,0-13.87,1.26l-.63.22c-1.43.51-2.75,1.09-3.88,1.6-15.2,6.4-24.21,16-26.78,28.54-.43,1.38-.85,2.74-1.24,4.15-.22.81-.42,1.63-.6,2.45-2,9.83-.25,18.55,1.45,27a105.4,105.4,0,0,1,2,12.49l0,.18,0,.18c.12.91.24,1.8.34,2.7.82,6.67,1,13.65-2.86,19.76l-.61,1-.24,1.1c-.2.92-.38,1.82-.55,2.72a39.45,39.45,0,0,0-.3,14.14c0,.7,0,1.4,0,2.09v.43l.05.41c.14,1,.3,2,.47,3,.45,2.51,1,5.24,1.88,8.58l0,.13c.3,1.09.58,2,.88,2.83a21.1,21.1,0,0,0,14.34,13.63c.93.46,1.79.85,2.63,1.17,7.78,3,15.31,1.24,21-.65m23.67-43.9a15.67,15.67,0,0,1-.1,1.75c-.29-.36-.59-.72-.9-1.07a.69.69,0,0,0,0-.13l1-.53,0,0m-7.31-33.31c-.56.11-1.12.2-1.7.27-.34,0-.68.07-1,.09l-1.14.06-1.91.08-1.26.8c.78-2.4,1.34-4.72,1.88-7,.27-1.14.53-2.24.81-3.29.27.33.56.66.88,1l.06.11c.63,1.27,1.23,2.62,1.8,3.92.4.92.8,1.82,1.19,2.65.08.27.42,1.3.42,1.31"/><path class="cls-3" d="M226.89,287.81c8.65,3.49,14.3-3.77,21.35-5.71q1.29-.41,2.61-.75c8.79-2.34,18.37-3.32,25.47-9.2a22.74,22.74,0,0,0,2.16-1.65,15.06,15.06,0,0,0,5.17-9.44c.36-.78.68-1.54,1-2.31a25.92,25.92,0,0,0,.7-15.21c-.18-.88-.4-1.73-.66-2.58a29.09,29.09,0,0,0-12.55-16.3,19.6,19.6,0,0,0-2.37-.84,23.8,23.8,0,0,0-7.91-.82c-1-.13-2-.23-2.93-.32s-1.91-.16-2.83-.22-1.83-.1-2.69-.13c-9.36-2.4-14.6-10.06-21.21-16.34a21.43,21.43,0,0,0-2.2-1.33c-.73-.56-1.44-1.06-2.14-1.53l-2.11-1.38a18.14,18.14,0,0,1-1.79-1.72,15.19,15.19,0,0,1-1.55-2l-1.64-1.64c-1.63-1.6-3.25-3.2-5-4.65-.4-1.21,0-4,3.23-2.42-1.61-.8-2.82-.4-4.65-.06a9.65,9.65,0,0,0-1.6.25,16.23,16.23,0,0,0,3,0c4.05,2.22,9.29-2.21,10.8-6.13a7.46,7.46,0,0,0,.16-2.26,9.6,9.6,0,0,0-.46-2.29c-2.42-3.23-4.84-6.45-9.73-9.45-.68-.42-1.38-.81-2.09-1.18s-1.41-.72-2.12-1-1.58-.58-2.36-.83-1.56-.48-2.34-.69l-1.2-.22c-.8-.13-1.61-.25-2.4-.34-1.2-.15-2.38-.26-3.53-.34a24.18,24.18,0,0,0-11.71,1.14c-1.16.41-2.3.91-3.47,1.44-11.07,4.65-20.74,11.9-23.14,24.28-.45,1.41-.89,2.82-1.27,4.23-.2.71-.37,1.43-.53,2.15-2.66,13.1,2.58,24.79,3.58,37.6.13.95.25,1.88.36,2.81,1,8.3,1,16.43-3.82,23.93-.18.84-.35,1.67-.5,2.5a32.52,32.52,0,0,0-.19,12.48c0,.86,0,1.71,0,2.57s.27,1.82.43,2.72c.48,2.71,1.1,5.42,1.79,8.15.22.82.45,1.6.72,2.36a14.81,14.81,0,0,0,10.68,9.81,25.57,25.57,0,0,0,2.6,1.2c9.18,3.57,18.35-1.73,26.74-4.35.82-.25,1.62-.51,2.4-.79a29.18,29.18,0,0,0,4.55-2.06c.8-.12,1.58-.25,2.33-.44,3.75-.91,6.78-2.92,7.78-8-.4-5.24-.8-10.49-4.65-14.72q-.76-1.17-1.65-2.28c-.58-.73-1.19-1.44-1.83-2.11a15.22,15.22,0,0,1-.67-2.48c-.18-.81-.37-1.58-.58-2.34s-.42-1.5-.66-2.22c.58-.26,1.48-.57,2.52-1a23.45,23.45,0,0,0,3.37-1.68c.81-.27,1.63-.55,2.47-.81a4.18,4.18,0,0,1,4,.06,4.84,4.84,0,0,1,1.42,1.37c2.17,4,.84,8.86.23,13.4-.12.91-.22,1.81-.25,2.68.33,4.06-.88,8.5,2.54,10.78.49.43.83.68.83.68m-9.24-50.68a58.47,58.47,0,0,1-7.59,1.63c-.43.05-.87.09-1.34.12l-1.48.07c-3.27,2.06-7.49,1.44-9.49-2a7.43,7.43,0,0,1-.57-1.24,7.27,7.27,0,0,1,.13-2.16,11.34,11.34,0,0,1,.57-1.9c2.18-6.51,2.59-13.37,6.23-18.61a5.68,5.68,0,0,1,2.25.23c3.18,1,3.87,5,6.33,6.89.23.41.44.82.65,1.23,1.24,2.47,2.24,5,3.25,7.11q.16.57.36,1.14c.73,2.26,1.52,4.41,1.3,6.88a5.86,5.86,0,0,1-.69.58h.09"/><path d="M203.49,307.13a12.78,12.78,0,0,1-2.18,1.92,12.26,12.26,0,0,1-2.32,1.27c-4.79,2-10.43,1.08-15.27,2.31-.67.19-1.33.4-2,.62a37.66,37.66,0,0,0-5.46,2.33q-1.15.6-2.22,1.26c-7.56,4.92-11.53,12.5-16.26,19.59-.5.91-1,1.75-1.51,2.58a17.63,17.63,0,0,1-5.76,5.94c-.61.68-1.25,1.34-1.92,2-9.38,8.81-24,12.57-35.75,3.43-.79-.47-1.54-1-2.27-1.5a35.07,35.07,0,0,1-4.49-3.89c-.46-.48-.92-1-1.36-1.48a36.49,36.49,0,0,1-2.5-4.53c-.36-.78-.7-1.56-1-2.36a30.78,30.78,0,0,1-1.55-5.22c-.19-.9-.34-1.81-.45-2.75,1.74-8.34-1.7-15.29-8.51-21.77l-1.51-1.73c-1.26-1.45-2.54-2.93-3.81-4.47-.42-.51-.84-1-1.24-1.57-4.36-6-7.51-14.71-15-19.16a20.75,20.75,0,0,0-1.8-1.32,14.68,14.68,0,0,0-8.83-2.38,22.78,22.78,0,0,1-1.85-1.38A17.86,17.86,0,0,1,55,273.25a23,23,0,0,1-4.28-6.58c-.42-.79-.82-1.56-1.19-2.33a40.88,40.88,0,0,1-3.69-10.91,24.27,24.27,0,0,1-.38-3.91V249l.09-.56A24.3,24.3,0,0,1,55.23,233l.71-.54c.65-.46,1.32-.91,2-1.33,2.41-1.5,4.61-3.07,6.93-4.74,5.3-3.81,10.77-7.74,18.55-10.46a24.77,24.77,0,0,1,3.3-1,25.51,25.51,0,0,1,3.3-.54,23.43,23.43,0,0,1,3-.47,18.7,18.7,0,0,1,11,2.37,22.64,22.64,0,0,1,3.39,2,25,25,0,0,1,3.24,2.71l.38.37.3.43a15.21,15.21,0,0,1,2.25,14.11c-.25.83-.54,1.64-.8,2.42-1.44,7-2.59,14.11-.26,21.11a10.38,10.38,0,0,0,1.15,1.75c.49.84,1,1.67,1.51,2.48a14.87,14.87,0,0,0,1,2,17.52,17.52,0,0,0,1.31,1.83c.47.59,1,1.16,1.52,1.72,2.7,2.78,6.09,5.2,9.11,7.8.65.46,1.31.91,2,1.33.93.59,1.89,1.14,2.85,1.65l1.44.72c5.55,2.14,11.18,1.22,17.5.16a21.13,21.13,0,0,0,2.51-1l.21-.1.22-.08a7.45,7.45,0,0,0,1.8-.94,8.39,8.39,0,0,0,3-5.37,19.07,19.07,0,0,0,.31-2.32c0-4.2-2.27-7.3-1.69-10.86,2.19-7.87,10.92-11,18.24-10.41a16.12,16.12,0,0,1,2.08,0,13.3,13.3,0,0,1,8.35,3.5,15.78,15.78,0,0,1,1.84,2c4.18,5.08,3.31,10.42,3.88,16a20,20,0,0,1-.6,2.7c-.05.93-.07,1.85-.05,2.78a7.43,7.43,0,0,0,.3,1.84c6.09,4.59,16.77,6.32,18.07,16.14a9.39,9.39,0,0,1,.21,2.36c-.12,3.15-1.88,6.31-6,9-.35.41-.69.79-1,1.17"/><path class="cls-3" d="M153.05,331.81c-.69,1.61-1.32,5.47-3.57,7.27-.52.48-1.07.95-1.62,1.44s-1.1,1-1.64,1.52-1.26,1.25-1.93,1.82a24.07,24.07,0,0,1-10.8,5.55,11.76,11.76,0,0,1-2.61.2,15.19,15.19,0,0,1-5.9-1.56c-4.79-2.5-8.48-7.1-11.19-12.13-.38-.71-.75-1.44-1.1-2.17a56.72,56.72,0,0,1-3.11-8.1q-.42-1.36-.81-2.73c-.88-2.5-1.88-5-3-7.45-.36-.82-.74-1.64-1.12-2.46-.62-.71-1.23-1.44-1.82-2.18s-1.18-1.52-1.75-2.3a19.37,19.37,0,0,1-5.2-5.89c-.51-.81-1-1.65-1.54-2.54l-1.44-2c-.48-.65-1-1.3-1.41-2-6.29-6.26-11.94-14.1-20.11-19.13-1-.29-2.1-.56-3.18-.85-.86-.63-1.71-1.27-2.56-1.91-2.53-1.93-5-3.86-7.2-5.79-.41-.7-.82-1.41-1.21-2.13a37.49,37.49,0,0,1-4.21-11.29,18.29,18.29,0,0,1-.28-2.91,18,18,0,0,1,7.29-11.37c.71-.54,1.45-1.05,2.2-1.52,8.27-5.15,14.19-11.12,24.35-14.64a18.39,18.39,0,0,1,2.54-.82,18.77,18.77,0,0,1,2.81-.43,17,17,0,0,1,2.55-.43,12.44,12.44,0,0,1,7.54,1.69,18.11,18.11,0,0,1,2.66,1.53,17.55,17.55,0,0,1,2.39,2c5.66,7.84-3.3,14.3-4.48,23a17.75,17.75,0,0,0,.35,2.58c1.24,6,5.16,11.81,8.63,17.47a21.38,21.38,0,0,0,1.79,1.95,26.68,26.68,0,0,0,2.22,1.88,18.43,18.43,0,0,0,1.58,2.25c5.59,6.54,14,12.25,22.79,14.4.87.21,1.76.39,2.64.53a15.05,15.05,0,0,0,6.76-.91,18.93,18.93,0,0,0,1.94-.89,30.79,30.79,0,0,0,6.71-2.14c10.16-3.78,10.11-15.65,8.52-24.74a18.71,18.71,0,0,1,5.59-3.87c5.39-2.28,10.14-.05,13.81,4.08a13.52,13.52,0,0,1,1.39,1.81c.07,10.19-4.54,20.32,7.43,24.49.8.52,1.58,1.06,2.37,1.6a70.77,70.77,0,0,1,7.06,5.4,11.49,11.49,0,0,1-.79,2.55c-1.67,3.94-4.71,5.79-8.12,6.93-.86.29-1.73.53-2.62.74-10.57,1.25-20,4.66-28,12.24-.68.58-1.36,1.18-2,1.79-2,1.84-3.93,3.82-5.94,5.87-.65.73-1.26,1.46-1.87,2.22s-1.2,1.55-1.79,2.37h0"/><path class="cls-4" d="M60.06,92.59a1.12,1.12,0,0,1-1,.49,1.9,1.9,0,0,1-1-.45L47.36,84.06a1.11,1.11,0,0,1-.16-1.77,1.31,1.31,0,0,1,.79-.58,1,1,0,0,1,.72.2c.24.17.5.36.78.59a6.61,6.61,0,0,1-.31-1.73,2.29,2.29,0,0,1,.53-1.63,2,2,0,0,1,1.37-.82,3.2,3.2,0,0,1,1.6.28,6,6,0,0,1-.35-1.78,2.44,2.44,0,0,1,.56-1.66,2.3,2.3,0,0,1,1.61-1,3.32,3.32,0,0,1,1.75.35,9.07,9.07,0,0,1,1.62,1l8.46,6.76a1.83,1.83,0,0,1,.67.89,1.13,1.13,0,0,1-.3,1.05,1.08,1.08,0,0,1-1,.49,1.92,1.92,0,0,1-1-.44l-8.32-6.65-.66-.47a3.38,3.38,0,0,0-.87-.4.65.65,0,0,0-.72.23A1.24,1.24,0,0,0,54,78a3.62,3.62,0,0,0,.44,1.21,3.09,3.09,0,0,0,.68.87l8,6.35a1.83,1.83,0,0,1,.67.89,1.12,1.12,0,0,1-.3,1,1.08,1.08,0,0,1-1,.49,1.92,1.92,0,0,1-1-.44L53.27,82c-.14-.12-.37-.28-.68-.5a3.35,3.35,0,0,0-1-.5.65.65,0,0,0-.75.17,1.29,1.29,0,0,0-.16,1,4.84,4.84,0,0,0,.43,1.3,2.67,2.67,0,0,0,.65.9l7.88,6.29a1.87,1.87,0,0,1,.67.9A1.14,1.14,0,0,1,60.06,92.59Z"/><path class="cls-4" d="M72.1,78.38a4.17,4.17,0,0,1-3.61,1.56A6.51,6.51,0,0,1,64.94,78l-6.78-6.54a2.16,2.16,0,0,1-.65-1,1.21,1.21,0,0,1,.42-1.1A1.12,1.12,0,0,1,59,68.91a2.3,2.3,0,0,1,1,.61l6.46,6.22a6.43,6.43,0,0,0,1.35,1,2.37,2.37,0,0,0,1.44.33,2.3,2.3,0,0,0,1.44-.8A4.16,4.16,0,0,0,72,72.91a6.78,6.78,0,0,0-.29-1.56,3,3,0,0,0-.8-1.33L65,64.38a2.2,2.2,0,0,1-.65-1,1.2,1.2,0,0,1,.42-1.1,1.13,1.13,0,0,1,1.08-.44,2.25,2.25,0,0,1,1,.61l9.59,9.25a1.63,1.63,0,0,1,.56,1,1.27,1.27,0,0,1-.43,1,1.16,1.16,0,0,1-1.12.47,2.26,2.26,0,0,1-1-.63c-.32-.33-.62-.62-.9-.89a8.32,8.32,0,0,1,0,3.07A5.33,5.33,0,0,1,72.1,78.38Z"/><path class="cls-4" d="M84.22,66.84a10.53,10.53,0,0,1-2.06,1.4,5.84,5.84,0,0,1-2.42.67,6.15,6.15,0,0,1-1.69-.15,2.64,2.64,0,0,1-1.44-.87,1,1,0,0,1-.32-1,1.62,1.62,0,0,1,.56-.84,1.3,1.3,0,0,1,1.07-.33c.39.06.83.15,1.31.26a3.74,3.74,0,0,0,1.57,0,3.82,3.82,0,0,0,1.83-1,5.79,5.79,0,0,0,1-1.07,2.3,2.3,0,0,0,.46-1.24,1.85,1.85,0,0,0-.53-1.33,1.68,1.68,0,0,0-1.38-.59,6.38,6.38,0,0,0-1.91.38c-.71.23-1.45.5-2.22.8a16.93,16.93,0,0,1-2.31.7,5.41,5.41,0,0,1-2.19,0,3.25,3.25,0,0,1-1.85-1.14,3.6,3.6,0,0,1-1-2.44,5.11,5.11,0,0,1,.72-2.48,7.72,7.72,0,0,1,1.7-2A8.27,8.27,0,0,1,75,53.42a5.17,5.17,0,0,1,2.18-.55,6.61,6.61,0,0,1,1.58.13,2.25,2.25,0,0,1,1.31.74,1.05,1.05,0,0,1,.31.92,1.5,1.5,0,0,1-.55.83,1.33,1.33,0,0,1-1,.37,8.79,8.79,0,0,1-1.15-.21,3,3,0,0,0-3,.79,6.15,6.15,0,0,0-.88,1,2.17,2.17,0,0,0-.42,1.12,1.66,1.66,0,0,0,.48,1.2,1.56,1.56,0,0,0,1.35.55,6.73,6.73,0,0,0,1.87-.42q1-.37,2.19-.84a15.57,15.57,0,0,1,2.3-.71,5.15,5.15,0,0,1,2.21,0,3.58,3.58,0,0,1,2,1.25,4,4,0,0,1,1.09,2.61,4.85,4.85,0,0,1-.74,2.54A9.3,9.3,0,0,1,84.22,66.84Z"/><path class="cls-4" d="M94.47,58.76a5.57,5.57,0,0,1-3.56,1.12A4,4,0,0,1,87.78,58a5.08,5.08,0,0,1-1-2.59A4.71,4.71,0,0,1,87.23,53a9.28,9.28,0,0,1,1.48-2.13,18.05,18.05,0,0,1,2-1.88c.73-.57,1.42-1.1,2.06-1.58a8.55,8.55,0,0,0-1.39-1.59,2,2,0,0,0-1.47-.52,4.16,4.16,0,0,0-2,.87,3.36,3.36,0,0,0-1.25,1.4A3.64,3.64,0,0,0,86.44,49a7.1,7.1,0,0,1-.08,1.25,1.51,1.51,0,0,1-.7,1,1.68,1.68,0,0,1-1,.35A1.09,1.09,0,0,1,83.8,51a2.22,2.22,0,0,1-.37-.93,7,7,0,0,1-.05-1,5,5,0,0,1,.93-2.74,9,9,0,0,1,2.08-2.05,8.72,8.72,0,0,1,2.86-1.38A4.56,4.56,0,0,1,92,43a5.37,5.37,0,0,1,2.42,2l5.7,8a1.43,1.43,0,0,1-1.41,2.17,1.69,1.69,0,0,1-.77-.63l-.66-.93a8.8,8.8,0,0,1-.86,2.82A6,6,0,0,1,94.47,58.76Zm-1.19-2a5,5,0,0,0,1.31-1.35,5.76,5.76,0,0,0,.76-1.7,10.25,10.25,0,0,0,.23-1.39A2,2,0,0,0,95.31,51L94,49.07l-1.35,1a16.33,16.33,0,0,0-1.48,1.31A7.88,7.88,0,0,0,89.92,53a3.38,3.38,0,0,0-.53,1.66A2.66,2.66,0,0,0,90,56.33a2.17,2.17,0,0,0,1.53,1.05A2.76,2.76,0,0,0,93.28,56.77Z"/><path class="cls-4" d="M108.5,49.69a10.92,10.92,0,0,1-2.29,1,5.91,5.91,0,0,1-4.13-.25,2.57,2.57,0,0,1-1.25-1.12,1.07,1.07,0,0,1-.14-1,1.61,1.61,0,0,1,.7-.72,1.29,1.29,0,0,1,1.11-.12c.38.13.79.3,1.24.5a4,4,0,0,0,1.54.32,3.79,3.79,0,0,0,2-.62,6.35,6.35,0,0,0,1.16-.86,2.33,2.33,0,0,0,.68-1.14,1.85,1.85,0,0,0-.27-1.4,1.67,1.67,0,0,0-1.25-.84,6.4,6.4,0,0,0-2,0c-.73.1-1.51.22-2.33.37a16.62,16.62,0,0,1-2.39.26,5.47,5.47,0,0,1-2.17-.36,3.28,3.28,0,0,1-1.61-1.46,3.59,3.59,0,0,1-.5-2.59,5,5,0,0,1,1.16-2.3,8.26,8.26,0,0,1,2-1.7,9.36,9.36,0,0,1,2.09-.88,5.34,5.34,0,0,1,2.25-.14,7.35,7.35,0,0,1,1.52.42,2.29,2.29,0,0,1,1.16,1,1,1,0,0,1,.13,1,1.53,1.53,0,0,1-.69.72,1.34,1.34,0,0,1-1.1.16,9.32,9.32,0,0,1-1.09-.42,3.55,3.55,0,0,0-1.31-.31,3.28,3.28,0,0,0-1.75.55,5.6,5.6,0,0,0-1,.77,2.19,2.19,0,0,0-.62,1,1.65,1.65,0,0,0,.25,1.28,1.56,1.56,0,0,0,1.22.78,6.29,6.29,0,0,0,1.91-.07c.73-.12,1.5-.25,2.31-.41a14.23,14.23,0,0,1,2.39-.27,5.09,5.09,0,0,1,2.18.38,3.63,3.63,0,0,1,1.68,1.6,3.89,3.89,0,0,1,.59,2.76,4.69,4.69,0,0,1-1.2,2.35A8.82,8.82,0,0,1,108.5,49.69Z"/><path class="cls-4" d="M117,45.06a1.14,1.14,0,0,1-1.15,0,2.13,2.13,0,0,1-.76-.94l-8.46-18.37a2.17,2.17,0,0,1-.22-1.2,1.18,1.18,0,0,1,.79-.88,1.16,1.16,0,0,1,1.17,0,2.34,2.34,0,0,1,.74.95l3.49,7.58a9,9,0,0,1,1.15-2.85,5.23,5.23,0,0,1,2.31-2,4.17,4.17,0,0,1,3.93-.15,6.57,6.57,0,0,1,2.61,3.08l3.94,8.56a2.19,2.19,0,0,1,.22,1.21,1.2,1.2,0,0,1-.79.87,1.12,1.12,0,0,1-1.15,0A2.07,2.07,0,0,1,124,40l-3.74-8.12a6.5,6.5,0,0,0-.9-1.44,2.62,2.62,0,0,0-1.21-.84,2.27,2.27,0,0,0-1.65.21,4.2,4.2,0,0,0-2.33,2.69,8.45,8.45,0,0,0-.31,1.56,3,3,0,0,0,.26,1.57L117.55,43a2.17,2.17,0,0,1,.22,1.2A1.18,1.18,0,0,1,117,45.06Z"/><path class="cls-4" d="M128.75,18.86a1.73,1.73,0,0,1-2.49-1.19,1.74,1.74,0,0,1,1.22-2.5,1.85,1.85,0,0,1,1.47.1,1.88,1.88,0,0,1,1,1.1A1.73,1.73,0,0,1,128.75,18.86Zm6.5,18.54a1.17,1.17,0,0,1-1.19-.09,2.16,2.16,0,0,1-.7-1l-4.29-12.2a2.2,2.2,0,0,1-.11-1.25,1.46,1.46,0,0,1,2.06-.73,2.22,2.22,0,0,1,.71,1L136,35.35a2.17,2.17,0,0,1,.11,1.24A1.23,1.23,0,0,1,135.25,37.4Z"/><path class="cls-4" d="M144.77,34.3a1.13,1.13,0,0,1-1.13-.2,2.07,2.07,0,0,1-.58-1l-4.94-19.67a2.12,2.12,0,0,1,0-1.2,1.19,1.19,0,0,1,.91-.71,1.16,1.16,0,0,1,1.15.2,2.2,2.2,0,0,1,.56,1.05l3.15,12.54,5.37-8.53a3.88,3.88,0,0,1,.4-.49,1.1,1.1,0,0,1,.52-.3,1.09,1.09,0,0,1,1.51.86.9.9,0,0,1-.05.58,5.64,5.64,0,0,1-.28.55L148,23.12l7.19,6.21a3.41,3.41,0,0,1,.38.38,1.35,1.35,0,0,1,.24.48,1.16,1.16,0,0,1-1,1.58,1.19,1.19,0,0,1-.81-.07,3.22,3.22,0,0,1-.72-.44l-6.69-6-1.94,3,1,4.11a2.19,2.19,0,0,1,0,1.19A1.16,1.16,0,0,1,144.77,34.3Z"/><path class="cls-4" d="M164.13,30.14a6.3,6.3,0,0,1-4.1-.5A6,6,0,0,1,157.58,27a13.77,13.77,0,0,1-1.2-4,13.27,13.27,0,0,1,0-4.21,5.91,5.91,0,0,1,1.59-3.26,6.51,6.51,0,0,1,3.8-1.71,6.14,6.14,0,0,1,3.1.22,5.52,5.52,0,0,1,2.26,1.55,8.08,8.08,0,0,1,1.49,2.45,14.35,14.35,0,0,1,.8,3,13.81,13.81,0,0,1,0,4.15,6,6,0,0,1-1.53,3.24A6.33,6.33,0,0,1,164.13,30.14Zm-.38-2.43a3.31,3.31,0,0,0,1.83-.82,3.52,3.52,0,0,0,.91-1.52,6.89,6.89,0,0,0,.25-1.91,13.88,13.88,0,0,0-.16-2,13.53,13.53,0,0,0-.44-1.95,6.17,6.17,0,0,0-.82-1.8A3.63,3.63,0,0,0,164,16.53a3.24,3.24,0,0,0-2-.23,3,3,0,0,0-1.86.89,3.63,3.63,0,0,0-.88,1.72A8.48,8.48,0,0,0,159,21a15.8,15.8,0,0,0,.18,2,10.41,10.41,0,0,0,.68,2.43,4.07,4.07,0,0,0,1.41,1.81A3.23,3.23,0,0,0,163.75,27.71Z"/><path class="cls-4" d="M176.89,32.28a1.76,1.76,0,0,1-1-.2,1,1,0,0,1-.45-.89,4.29,4.29,0,0,1,.26-1c.18-.53.38-1.12.63-1.78s.47-1.27.7-1.83.37-.95.44-1.16l-5.89-10.82c-.07-.13-.14-.28-.2-.42a1.78,1.78,0,0,1-.1-.43,1.14,1.14,0,0,1,.32-1,1.59,1.59,0,0,1,1-.34,1.13,1.13,0,0,1,.84.25,2.55,2.55,0,0,1,.57.68l4.71,8.73,3.4-9.19a2.38,2.38,0,0,1,.48-.77,1.21,1.21,0,0,1,.81-.36c.9-.06,1.37.34,1.42,1.17a1.38,1.38,0,0,1-.06.49l-.15.49-6.35,17.16a2.45,2.45,0,0,1-.5.83A1.34,1.34,0,0,1,176.89,32.28Z"/><path class="cls-4" d="M192.26,28.28A5.56,5.56,0,0,1,188.74,27a4,4,0,0,1-1.35-3.41,5.12,5.12,0,0,1,.75-2.69A4.6,4.6,0,0,1,190,19.32a9.18,9.18,0,0,1,2.47-.8,17.67,17.67,0,0,1,2.74-.27c.93,0,1.8,0,2.6,0a8.81,8.81,0,0,0-.14-2.11,2,2,0,0,0-.86-1.3,4,4,0,0,0-2.12-.51,3.4,3.4,0,0,0-1.84.36,3.79,3.79,0,0,0-1,.94,6.49,6.49,0,0,1-.81.95,1.57,1.57,0,0,1-1.17.39,1.72,1.72,0,0,1-1-.32,1.08,1.08,0,0,1-.38-1,2.26,2.26,0,0,1,.28-1,5.48,5.48,0,0,1,.56-.83,5,5,0,0,1,2.4-1.62,9.46,9.46,0,0,1,6,.25,4.53,4.53,0,0,1,2.1,1.75,5.31,5.31,0,0,1,.7,3.1l-.32,9.84a1.19,1.19,0,0,1-1.4,1.3,1.15,1.15,0,0,1-1-.42,1.69,1.69,0,0,1-.24-1c0-.38,0-.76,0-1.14a8.79,8.79,0,0,1-2.39,1.73A5.94,5.94,0,0,1,192.26,28.28Zm.25-2.3a4.9,4.9,0,0,0,1.86-.29A5.62,5.62,0,0,0,196,24.8a10.49,10.49,0,0,0,1-1,2,2,0,0,0,.61-1.26l.07-2.31-1.71,0a16.8,16.8,0,0,0-2,.15,7.93,7.93,0,0,0-1.89.48,3.39,3.39,0,0,0-1.43,1,2.69,2.69,0,0,0-.58,1.71,2.15,2.15,0,0,0,.58,1.76A2.81,2.81,0,0,0,192.51,26Z"/><path class="cls-4" d="M203.36,28.84a1.1,1.1,0,0,1-.92-.55,1.89,1.89,0,0,1-.14-1.1L204,13.56a1.12,1.12,0,0,1,1.43-1.06,1.36,1.36,0,0,1,.91.38,1.06,1.06,0,0,1,.19.72c0,.29,0,.61-.09,1a6.68,6.68,0,0,1,1.31-1.17,2.33,2.33,0,0,1,1.67-.39,2,2,0,0,1,1.42.74,3.18,3.18,0,0,1,.59,1.51A6,6,0,0,1,212.8,14a2.42,2.42,0,0,1,1.71-.39,2.36,2.36,0,0,1,1.68.86,3.4,3.4,0,0,1,.6,1.68,8.79,8.79,0,0,1,0,1.92l-1.37,10.75a1.86,1.86,0,0,1-.41,1,1.12,1.12,0,0,1-1,.29,1.09,1.09,0,0,1-.92-.55,1.94,1.94,0,0,1-.15-1.09L214.2,18a7.15,7.15,0,0,0,.06-.81,3.23,3.23,0,0,0-.1-.95.65.65,0,0,0-.58-.5,1.23,1.23,0,0,0-1,.35,3.66,3.66,0,0,0-.81,1,2.77,2.77,0,0,0-.38,1l-1.29,10.09a1.86,1.86,0,0,1-.41,1,1.12,1.12,0,0,1-1.05.29,1.08,1.08,0,0,1-.92-.55,1.94,1.94,0,0,1-.15-1.09l1.32-10.36c0-.18.05-.46.08-.84a3.73,3.73,0,0,0-.08-1.07.64.64,0,0,0-.53-.55,1.23,1.23,0,0,0-1,.39,4.76,4.76,0,0,0-.89,1,2.57,2.57,0,0,0-.43,1l-1.27,10a1.94,1.94,0,0,1-.42,1A1.12,1.12,0,0,1,203.36,28.84Z"/><path class="cls-4" d="M221.8,31.74a5.62,5.62,0,0,1-3.22-1.89,4,4,0,0,1-.69-3.6,5.08,5.08,0,0,1,1.24-2.51,4.67,4.67,0,0,1,2.09-1.23,9.4,9.4,0,0,1,2.58-.34,17,17,0,0,1,2.74.25c.92.15,1.77.31,2.56.46a9.23,9.23,0,0,0,.25-2.09,2,2,0,0,0-.6-1.44,4.06,4.06,0,0,0-2-.89,3.27,3.27,0,0,0-1.88,0,3.61,3.61,0,0,0-1.2.73,6.63,6.63,0,0,1-1,.78,1.51,1.51,0,0,1-1.22.16,1.69,1.69,0,0,1-.92-.5,1.09,1.09,0,0,1-.19-1,2.25,2.25,0,0,1,.45-.9,6,6,0,0,1,.71-.71,4.88,4.88,0,0,1,2.66-1.15,9,9,0,0,1,2.91.18,8.51,8.51,0,0,1,2.94,1.19,4.53,4.53,0,0,1,1.75,2.11,5.34,5.34,0,0,1,.1,3.18l-2.14,9.6a1.21,1.21,0,0,1-1.62,1,1.24,1.24,0,0,1-.94-.61,1.68,1.68,0,0,1-.05-1c.08-.37.16-.74.25-1.11a8.8,8.8,0,0,1-2.67,1.25A6.08,6.08,0,0,1,221.8,31.74Zm.68-2.22a5.12,5.12,0,0,0,1.87.07,5.81,5.81,0,0,0,1.78-.58,9.67,9.67,0,0,0,1.18-.76,1.94,1.94,0,0,0,.84-1.12l.5-2.26-1.68-.3a17.71,17.71,0,0,0-2-.22,7.81,7.81,0,0,0-1.95.12,3.52,3.52,0,0,0-1.59.72,2.77,2.77,0,0,0-.89,1.57,2.14,2.14,0,0,0,.26,1.84A2.76,2.76,0,0,0,222.48,29.52Z"/><path class="cls-4" d="M311.79,290.8a7.36,7.36,0,0,1,2.63-2,6.51,6.51,0,0,1,3.21-.61,5.31,5.31,0,0,1,3.07,1.28,1.49,1.49,0,0,1-.93,2.58,4.13,4.13,0,0,1-1.29-.3,9.1,9.1,0,0,0-1.45-.46,2.94,2.94,0,0,0-1.58.05,3.45,3.45,0,0,0-1.64,1.23,3,3,0,0,0-.83,2.22,4.15,4.15,0,0,0,.86,2.07,10.61,10.61,0,0,0,1.66,1.75l10.74,8.91a2.25,2.25,0,0,1,.76,1,1.23,1.23,0,0,1-.34,1.19,1.16,1.16,0,0,1-1.1.52,2.32,2.32,0,0,1-1.14-.55l-10.81-9a12.27,12.27,0,0,1-2.67-3,5.47,5.47,0,0,1-.85-3.31A6.58,6.58,0,0,1,311.79,290.8Z"/><path class="cls-4" d="M301.5,302a6.19,6.19,0,0,1,3.59-1.93,6.71,6.71,0,0,1,3.71.62,11.51,11.51,0,0,1,3.33,2.36,13.42,13.42,0,0,1,1.9,2.38,8.51,8.51,0,0,1,1.09,2.67,5.53,5.53,0,0,1-.1,2.74,6.08,6.08,0,0,1-1.64,2.62,6.55,6.55,0,0,1-3.16,1.88,5.53,5.53,0,0,1-3.26-.24,8.58,8.58,0,0,1-3.07-2,1.7,1.7,0,0,1,.05-2.72l5.77-5.77a10.42,10.42,0,0,0-2-1.6,3.82,3.82,0,0,0-2.21-.59,3.57,3.57,0,0,0-2.27,1.19,3.64,3.64,0,0,0-1,1.57,2.63,2.63,0,0,0,0,1.33,11.71,11.71,0,0,0,.38,1.14,3.58,3.58,0,0,1,.27,1,1.21,1.21,0,0,1-.42,1,1.51,1.51,0,0,1-.9.46,1.12,1.12,0,0,1-.91-.4,3.18,3.18,0,0,1-.87-1.57,7.59,7.59,0,0,1-.19-1.83,5.43,5.43,0,0,1,.6-2.31A7.74,7.74,0,0,1,301.5,302Zm9.82,4.31-4.82,4.82a.3.3,0,0,0,0,.48,4.15,4.15,0,0,0,2.6,1.29,3.68,3.68,0,0,0,3.66-2.9,3.35,3.35,0,0,0-.29-1.88A8.5,8.5,0,0,0,311.32,306.33Z"/><path class="cls-4" d="M292.76,310.16a1.13,1.13,0,0,1,1.11-.3,2.11,2.11,0,0,1,1,.71l8.4,10.15a2.13,2.13,0,0,1,.52,1.1,1.49,1.49,0,0,1-1.65,1.39,2,2,0,0,1-.89-.65l-.75-.91a9.66,9.66,0,0,1-.33,2.74,4.34,4.34,0,0,1-1.49,2.26,1.6,1.6,0,0,1-1,.43,1.18,1.18,0,0,1-.92-.52,1.15,1.15,0,0,1-.26-1.23,4,4,0,0,1,.74-1.11,6.14,6.14,0,0,0,1-1.65,5.05,5.05,0,0,0,.45-2,2.63,2.63,0,0,0-.65-1.82l-5.33-6.45a2.18,2.18,0,0,1-.53-1.11A1.2,1.2,0,0,1,292.76,310.16Z"/><path class="cls-4" d="M282.9,318a1.14,1.14,0,0,1,1.13-.2,2.06,2.06,0,0,1,.9.78l11.42,16.77a2.07,2.07,0,0,1,.4,1.12,1.17,1.17,0,0,1-.6,1,1.15,1.15,0,0,1-1.14.21,2.13,2.13,0,0,1-.89-.79l-7.28-10.69L284.73,336a3.19,3.19,0,0,1-.21.59,1,1,0,0,1-.38.46,1.08,1.08,0,0,1-1.71-.28.82.82,0,0,1-.15-.57,3.92,3.92,0,0,1,.07-.61l1.38-6-8.89-3.35a3.15,3.15,0,0,1-.49-.24,1.12,1.12,0,0,1-.39-.36,1.17,1.17,0,0,1,.39-1.83,1.24,1.24,0,0,1,.78-.2,2.66,2.66,0,0,1,.82.16l8.34,3.29.79-3.48-2.38-3.5a2.08,2.08,0,0,1-.41-1.11A1.15,1.15,0,0,1,282.9,318Z"/><path class="cls-4" d="M252.49,335.31a6.28,6.28,0,0,1,4.1-.52,6.65,6.65,0,0,1,3.22,1.95,12,12,0,0,1,2.26,3.48,11.28,11.28,0,0,1,1,4,6.46,6.46,0,0,1-.85,3.61,6.39,6.39,0,0,1-3.13,2.6,7,7,0,0,1-2.21.58,5.46,5.46,0,0,1-2.25-.29,6.88,6.88,0,0,1-1.59-.78,3.07,3.07,0,0,1-1.14-1.34,1.19,1.19,0,0,1,.73-1.76,1.28,1.28,0,0,1,1-.07,3.32,3.32,0,0,1,.87.55,9.78,9.78,0,0,0,.92.72,2.64,2.64,0,0,0,1.16.42,3.3,3.3,0,0,0,1.64-.34,3.51,3.51,0,0,0,1.62-1.27,3.32,3.32,0,0,0,.53-1.72,6.51,6.51,0,0,0-.24-1.93,14.39,14.39,0,0,0-.66-1.88,13.33,13.33,0,0,0-1-1.82,6.78,6.78,0,0,0-1.29-1.5,3.49,3.49,0,0,0-1.65-.77,3.75,3.75,0,0,0-2.07.35,3,3,0,0,0-1.38,1.05,2.84,2.84,0,0,0-.44,1.29c0,.45,0,.88,0,1.3a3.2,3.2,0,0,1-.13,1.14,1.33,1.33,0,0,1-.78.78,1.18,1.18,0,0,1-1.78-.63,4,4,0,0,1-.32-1.9,6.46,6.46,0,0,1,.42-1.91,5.08,5.08,0,0,1,1.37-2A7.72,7.72,0,0,1,252.49,335.31Z"/><path class="cls-4" d="M243.62,338.94a1.14,1.14,0,0,1,1.15.13,2.22,2.22,0,0,1,.65,1l6.36,19.2a2,2,0,0,1,.09,1.22,1.18,1.18,0,0,1-.88.78,1.15,1.15,0,0,1-1.16-.12,2.38,2.38,0,0,1-.64-1l-2.62-7.92a9.26,9.26,0,0,1-1.46,2.7,5.21,5.21,0,0,1-2.52,1.72,4.17,4.17,0,0,1-3.92-.3,6.56,6.56,0,0,1-2.25-3.35l-3-8.94a2.18,2.18,0,0,1-.09-1.22,1.16,1.16,0,0,1,.88-.78,1.14,1.14,0,0,1,1.15.12,2.2,2.2,0,0,1,.65,1l2.81,8.49a6.37,6.37,0,0,0,.73,1.53,2.6,2.6,0,0,0,1.12,1,2.27,2.27,0,0,0,1.66,0,4.15,4.15,0,0,0,2.61-2.42,7,7,0,0,0,.48-1.51,3,3,0,0,0-.08-1.59l-2.55-7.69a2.18,2.18,0,0,1-.09-1.22A1.2,1.2,0,0,1,243.62,338.94Z"/><path class="cls-4" d="M224.61,344.52a1.2,1.2,0,0,1,1.17.22,2.15,2.15,0,0,1,.58,1.1l2.92,12.6a2.19,2.19,0,0,1,0,1.25,1.46,1.46,0,0,1-2.13.5,2.28,2.28,0,0,1-.59-1.11l-2.92-12.6a2.23,2.23,0,0,1,0-1.24A1.21,1.21,0,0,1,224.61,344.52ZM229,363.68a1.95,1.95,0,1,1,.85,3.8,1.83,1.83,0,0,1-1.45-.26,1.89,1.89,0,0,1-.86-1.2A1.72,1.72,0,0,1,229,363.68Z"/><path class="cls-4" d="M209.6,347.26a6.28,6.28,0,0,1,4.09.63,6.58,6.58,0,0,1,2.57,2.75,12.44,12.44,0,0,1,1.22,4,11.35,11.35,0,0,1-.16,4.09,6.46,6.46,0,0,1-1.8,3.24,6.36,6.36,0,0,1-3.73,1.65,6.9,6.9,0,0,1-2.27-.06,5.4,5.4,0,0,1-2.1-.89,7.24,7.24,0,0,1-1.31-1.19,3.06,3.06,0,0,1-.73-1.59,1.2,1.2,0,0,1,1.19-1.5,1.29,1.29,0,0,1,1,.22,2.86,2.86,0,0,1,.68.77,9.28,9.28,0,0,0,.69.93,2.6,2.6,0,0,0,1,.73,3.36,3.36,0,0,0,1.67.12,3.59,3.59,0,0,0,1.91-.77,3.34,3.34,0,0,0,1-1.51,6.42,6.42,0,0,0,.29-1.92,13.19,13.19,0,0,0-.12-2,11.85,11.85,0,0,0-.44-2,6.75,6.75,0,0,0-.83-1.8,3.41,3.41,0,0,0-1.37-1.19,3.7,3.7,0,0,0-2.1-.23,3,3,0,0,0-1.61.63,2.85,2.85,0,0,0-.77,1.12,10.79,10.79,0,0,0-.37,1.24,3.29,3.29,0,0,1-.45,1.06,1.29,1.29,0,0,1-1,.54,1.18,1.18,0,0,1-1.54-1.09,3.94,3.94,0,0,1,.21-1.92,6.64,6.64,0,0,1,.93-1.72,5.22,5.22,0,0,1,1.88-1.59A7.62,7.62,0,0,1,209.6,347.26Z"/><path class="cls-4" d="M200,348.32a1.16,1.16,0,0,1,1.07.42,2.09,2.09,0,0,1,.35,1.15l.86,20.26a2.16,2.16,0,0,1-.26,1.17,1.43,1.43,0,0,1-2.11.09,2.25,2.25,0,0,1-.33-1.14l-.55-12.93-7,7.27a4.66,4.66,0,0,1-.49.39,1.11,1.11,0,0,1-.57.19,1.09,1.09,0,0,1-1.31-1.14.94.94,0,0,1,.18-.57c.12-.17.25-.33.38-.48l4.35-4.39-5.78-7.53a3.46,3.46,0,0,1-.29-.45,1.13,1.13,0,0,1-.14-.52q-.06-1.29,1.29-1.35a1.24,1.24,0,0,1,.78.24,3,3,0,0,1,.61.57l5.35,7.2,2.5-2.54-.18-4.23a2.16,2.16,0,0,1,.24-1.17A1.18,1.18,0,0,1,200,348.32Z"/><path class="cls-4" d="M179.91,348.42a6.16,6.16,0,0,1,3.84,1.36,6.72,6.72,0,0,1,2,3.17,11.42,11.42,0,0,1,.48,4.06,13,13,0,0,1-.5,3,8.34,8.34,0,0,1-1.24,2.6,5.59,5.59,0,0,1-2.11,1.77,6.07,6.07,0,0,1-3,.53,6.52,6.52,0,0,1-3.51-1.08,5.59,5.59,0,0,1-2-2.58,8.53,8.53,0,0,1-.54-3.65,1.71,1.71,0,0,1,2.05-1.79l8.15.42a10.91,10.91,0,0,0-.17-2.58,3.86,3.86,0,0,0-1.05-2,3.54,3.54,0,0,0-2.4-.89A3.74,3.74,0,0,0,178,351a2.58,2.58,0,0,0-1,.86,9.36,9.36,0,0,0-.6,1.05,3.51,3.51,0,0,1-.58.89,1.23,1.23,0,0,1-1,.33,1.51,1.51,0,0,1-.94-.35,1.16,1.16,0,0,1-.31-1,3.16,3.16,0,0,1,.58-1.7,7.28,7.28,0,0,1,1.23-1.36,5.43,5.43,0,0,1,2.11-1.11A7.47,7.47,0,0,1,179.91,348.42Zm3.39,10.17-6.8-.34c-.24,0-.37.09-.38.31a4.15,4.15,0,0,0,.79,2.79,3.68,3.68,0,0,0,4.6.77,3.38,3.38,0,0,0,1.2-1.48A8.72,8.72,0,0,0,183.3,358.59Z"/><path class="cls-4" d="M170.33,347.72a1.13,1.13,0,0,1,1,.63,2.14,2.14,0,0,1,.12,1.2L169.5,362.7a1.82,1.82,0,0,1-.45,1.06,1.24,1.24,0,0,1-1.1.26c-.58-.08-.93-.3-1.06-.64a2.29,2.29,0,0,1-.09-1.18c.08-.44.14-.86.2-1.26a8.35,8.35,0,0,1-2.51,1.76,5.46,5.46,0,0,1-3,.38,4.15,4.15,0,0,1-3.37-2,6.57,6.57,0,0,1-.51-4l1.36-9.32a2.17,2.17,0,0,1,.47-1.13,1.2,1.2,0,0,1,1.14-.31,1.17,1.17,0,0,1,1,.63,2.25,2.25,0,0,1,.13,1.2l-1.3,8.85a6.88,6.88,0,0,0,0,1.69,2.55,2.55,0,0,0,.56,1.37,2.27,2.27,0,0,0,1.5.72,4.17,4.17,0,0,0,3.42-1,8.42,8.42,0,0,0,1.1-1.13,2.93,2.93,0,0,0,.64-1.44l1.17-8.05a2.2,2.2,0,0,1,.47-1.13A1.19,1.19,0,0,1,170.33,347.72Z"/></g></g></svg>